<?xml version="1.0" encoding="utf-8"?>
<!-- Svg Vector Icons : http://www.onlinewebfonts.com/icon -->
<!DOCTYPE svg PUBLIC "-//W3C//DTD SVG 1.1//EN" "http://www.w3.org/Graphics/SVG/1.1/DTD/svg11.dtd">
<svg version="1.1" xmlns="http://www.w3.org/2000/svg" xmlns:xlink="http://www.w3.org/1999/xlink" x="0px" y="0px" viewBox="0 0 1000 1000" enable-background="new 0 0 1000 1000" xml:space="preserve">
<metadata> Svg Vector Icons : http://www.onlinewebfonts.com/icon </metadata>
<g><path d="M952.4,424.6h-45.3c-20.7,0-42.7-16.2-48.9-36l-25.9-63.1c-9.8-18.3-5.8-45.2,8.8-59.9l32.1-32c14.7-14.7,14.7-38.7,0-53.4l-53.3-53.3c-14.7-14.6-38.7-14.6-53.4,0l-32.1,32.1c-14.6,14.7-41.6,18.7-59.9,8.9l-63.1-26c-19.7-6.1-36-28.1-36-48.9V47.7c0-20.7-17-37.7-37.7-37.7h-75.3c-20.8,0-37.7,17-37.7,37.7v45.2c0,20.8-16.2,42.8-36,48.9l-63.1,26c-18.3,9.8-45.2,5.8-59.8-8.9l-32.2-32.1c-14.7-14.6-38.7-14.6-53.3,0l-53.3,53.3c-14.7,14.6-14.7,38.7,0,53.3l32,32.1c14.7,14.7,18.7,41.6,8.9,59.9l-25.9,63.2c-6.2,19.8-28.1,36-48.9,36l-45.2-0.1c-20.7,0-37.7,17-37.7,37.7v75.3c0,20.8,17,37.7,37.7,37.7h45.2c20.8,0.1,42.7,16.2,48.8,36l26.1,63.1c9.7,18.3,5.8,45.3-8.9,59.9l-32.1,32c-14.6,14.7-14.6,38.7,0,53.4l53.4,53.4c14.6,14.6,38.6,14.6,53.3,0l32.1-32.1c14.6-14.6,41.5-18.6,59.8-8.7l63.2,25.9c19.8,6.2,36,28.1,36,48.9v45.1c0,20.7,16.9,37.7,37.7,37.7h75.3c20.7,0,37.7-17,37.7-37.7v-45.1c0-20.8,16.3-42.7,36-48.9l63.2-25.9c18.3-9.9,45.3-5.9,59.9,8.7l32,32.1c14.7,14.6,38.7,14.6,53.4,0l53.3-53.4c14.7-14.7,14.7-38.7,0-53.4l-32.1-32c-14.6-14.6-18.6-41.6-8.8-59.9l25.9-63.1c6.2-19.8,28.2-35.9,48.9-35.9h45.3c20.7,0,37.6-17,37.6-37.7v-75.4C990,441.5,973,424.6,952.4,424.6 M688.5,499.9c0,104.1-84.3,188.4-188.4,188.4c-104.1,0-188.5-84.3-188.5-188.4c0-104.1,84.4-188.4,188.5-188.4C604.2,311.5,688.5,395.8,688.5,499.9"/></g>
</svg>